<mxfile host="app.diagrams.net" agent="Mozilla/5.0 (X11; Ubuntu; Linux x86_64; rv:142.0) Gecko/20100101 Firefox/142.0" version="28.1.2">
  <diagram name="Página-1" id="gAzKbbcwC094XxibF-DY">
    <mxGraphModel dx="3080" dy="1964" grid="1" gridSize="10" guides="1" tooltips="1" connect="1" arrows="1" fold="1" page="1" pageScale="1" pageWidth="827" pageHeight="1169" math="0" shadow="0">
      <root>
        <mxCell id="0" />
        <mxCell id="1" parent="0" />
        <mxCell id="x1412d7Bhj6BPtJA3p_Y-9" value="" style="rounded=0;whiteSpace=wrap;html=1;" parent="1" vertex="1">
          <mxGeometry x="-190" y="-380" width="550" height="530" as="geometry" />
        </mxCell>
        <mxCell id="ybdoiESCJb-08Sw1rpXr-2" value="Investigador" style="shape=umlActor;verticalLabelPosition=bottom;verticalAlign=top;html=1;outlineConnect=0;" parent="1" vertex="1">
          <mxGeometry x="-250" y="-190" width="30" height="60" as="geometry" />
        </mxCell>
        <mxCell id="ybdoiESCJb-08Sw1rpXr-8" value="Buscar noticias" style="ellipse;whiteSpace=wrap;html=1;" parent="1" vertex="1">
          <mxGeometry x="-115" y="-280" width="80" height="40" as="geometry" />
        </mxCell>
        <mxCell id="ybdoiESCJb-08Sw1rpXr-9" value="exportar dataset[1]" style="ellipse;whiteSpace=wrap;html=1;" parent="1" vertex="1">
          <mxGeometry x="-50" y="-210" width="70" height="40" as="geometry" />
        </mxCell>
        <mxCell id="ybdoiESCJb-08Sw1rpXr-10" value="Autenticar usuario" style="ellipse;whiteSpace=wrap;html=1;" parent="1" vertex="1">
          <mxGeometry x="170" y="70" width="70" height="40" as="geometry" />
        </mxCell>
        <mxCell id="ybdoiESCJb-08Sw1rpXr-20" value="&amp;lt;&amp;lt;include&amp;gt;&amp;gt;" style="html=1;verticalAlign=bottom;endArrow=open;dashed=1;endSize=8;curved=0;rounded=0;exitX=1;exitY=0.5;exitDx=0;exitDy=0;entryX=0;entryY=0;entryDx=0;entryDy=0;" parent="1" source="ybdoiESCJb-08Sw1rpXr-8" target="ybdoiESCJb-08Sw1rpXr-68" edge="1">
          <mxGeometry relative="1" as="geometry">
            <mxPoint x="90" y="-50" as="sourcePoint" />
            <mxPoint x="10" y="-50" as="targetPoint" />
          </mxGeometry>
        </mxCell>
        <mxCell id="ybdoiESCJb-08Sw1rpXr-24" value="Generar estadísticas e informes" style="ellipse;whiteSpace=wrap;html=1;" parent="1" vertex="1">
          <mxGeometry x="-95" y="-150" width="85" height="50" as="geometry" />
        </mxCell>
        <mxCell id="ybdoiESCJb-08Sw1rpXr-31" value="" style="endArrow=none;html=1;rounded=0;entryX=0;entryY=0.5;entryDx=0;entryDy=0;" parent="1" target="ybdoiESCJb-08Sw1rpXr-24" edge="1">
          <mxGeometry width="50" height="50" relative="1" as="geometry">
            <mxPoint x="-200" y="-170" as="sourcePoint" />
            <mxPoint x="140" y="30" as="targetPoint" />
          </mxGeometry>
        </mxCell>
        <mxCell id="ybdoiESCJb-08Sw1rpXr-32" value="" style="endArrow=none;html=1;rounded=0;entryX=0;entryY=0.5;entryDx=0;entryDy=0;" parent="1" target="ybdoiESCJb-08Sw1rpXr-9" edge="1">
          <mxGeometry width="50" height="50" relative="1" as="geometry">
            <mxPoint x="-200" y="-170" as="sourcePoint" />
            <mxPoint x="-90" y="90" as="targetPoint" />
          </mxGeometry>
        </mxCell>
        <mxCell id="ybdoiESCJb-08Sw1rpXr-33" value="" style="endArrow=none;html=1;rounded=0;entryX=0;entryY=0.5;entryDx=0;entryDy=0;" parent="1" target="ybdoiESCJb-08Sw1rpXr-8" edge="1">
          <mxGeometry width="50" height="50" relative="1" as="geometry">
            <mxPoint x="-200" y="-170" as="sourcePoint" />
            <mxPoint x="-80" y="100" as="targetPoint" />
          </mxGeometry>
        </mxCell>
        <mxCell id="ybdoiESCJb-08Sw1rpXr-43" value="&amp;lt;&amp;lt;include&amp;gt;&amp;gt;" style="html=1;verticalAlign=bottom;endArrow=open;dashed=1;endSize=8;curved=0;rounded=0;exitX=1;exitY=0.5;exitDx=0;exitDy=0;entryX=0;entryY=0.5;entryDx=0;entryDy=0;" parent="1" source="ybdoiESCJb-08Sw1rpXr-9" target="ybdoiESCJb-08Sw1rpXr-10" edge="1">
          <mxGeometry relative="1" as="geometry">
            <mxPoint x="-15" y="-70" as="sourcePoint" />
            <mxPoint x="90" y="-25" as="targetPoint" />
          </mxGeometry>
        </mxCell>
        <mxCell id="ybdoiESCJb-08Sw1rpXr-56" value="Consultar IA" style="ellipse;whiteSpace=wrap;html=1;" parent="1" vertex="1">
          <mxGeometry x="-80" y="-80" width="70" height="50" as="geometry" />
        </mxCell>
        <mxCell id="ybdoiESCJb-08Sw1rpXr-57" value="" style="endArrow=none;html=1;rounded=0;entryX=0;entryY=0.5;entryDx=0;entryDy=0;" parent="1" target="ybdoiESCJb-08Sw1rpXr-56" edge="1">
          <mxGeometry width="50" height="50" relative="1" as="geometry">
            <mxPoint x="-200" y="-170" as="sourcePoint" />
            <mxPoint x="-95" y="210" as="targetPoint" />
          </mxGeometry>
        </mxCell>
        <mxCell id="ybdoiESCJb-08Sw1rpXr-58" value="&amp;lt;&amp;lt;include&amp;gt;&amp;gt;" style="html=1;verticalAlign=bottom;endArrow=open;dashed=1;endSize=8;curved=0;rounded=0;exitX=1;exitY=0.5;exitDx=0;exitDy=0;entryX=0;entryY=1;entryDx=0;entryDy=0;" parent="1" source="ybdoiESCJb-08Sw1rpXr-56" target="ybdoiESCJb-08Sw1rpXr-10" edge="1">
          <mxGeometry relative="1" as="geometry">
            <mxPoint x="-15" y="-40" as="sourcePoint" />
            <mxPoint x="160" y="80" as="targetPoint" />
          </mxGeometry>
        </mxCell>
        <mxCell id="ybdoiESCJb-08Sw1rpXr-61" value="Clasificar noticias" style="ellipse;whiteSpace=wrap;html=1;" parent="1" vertex="1">
          <mxGeometry x="-110" y="-10" width="70" height="50" as="geometry" />
        </mxCell>
        <mxCell id="ybdoiESCJb-08Sw1rpXr-62" value="" style="endArrow=none;html=1;rounded=0;entryX=0;entryY=0.5;entryDx=0;entryDy=0;" parent="1" target="ybdoiESCJb-08Sw1rpXr-61" edge="1">
          <mxGeometry width="50" height="50" relative="1" as="geometry">
            <mxPoint x="-200" y="-170" as="sourcePoint" />
            <mxPoint x="-85" y="105" as="targetPoint" />
          </mxGeometry>
        </mxCell>
        <mxCell id="ybdoiESCJb-08Sw1rpXr-63" value="Clasificar imagenes" style="ellipse;whiteSpace=wrap;html=1;" parent="1" vertex="1">
          <mxGeometry x="-110" y="60" width="70" height="50" as="geometry" />
        </mxCell>
        <mxCell id="ybdoiESCJb-08Sw1rpXr-64" value="" style="endArrow=none;html=1;rounded=0;entryX=0;entryY=0.5;entryDx=0;entryDy=0;" parent="1" target="ybdoiESCJb-08Sw1rpXr-63" edge="1">
          <mxGeometry width="50" height="50" relative="1" as="geometry">
            <mxPoint x="-200" y="-170" as="sourcePoint" />
            <mxPoint x="-85" y="165" as="targetPoint" />
          </mxGeometry>
        </mxCell>
        <mxCell id="ybdoiESCJb-08Sw1rpXr-68" value="Filtrar noticias por fecha" style="ellipse;whiteSpace=wrap;html=1;" parent="1" vertex="1">
          <mxGeometry x="160" y="-330" width="120" height="50" as="geometry" />
        </mxCell>
        <mxCell id="ybdoiESCJb-08Sw1rpXr-69" value="Filtrar noticias por medio" style="ellipse;whiteSpace=wrap;html=1;" parent="1" vertex="1">
          <mxGeometry x="160" y="-260" width="120" height="50" as="geometry" />
        </mxCell>
        <mxCell id="ybdoiESCJb-08Sw1rpXr-70" value="Filtrar noticias por tema" style="ellipse;whiteSpace=wrap;html=1;" parent="1" vertex="1">
          <mxGeometry x="180" y="-130" width="120" height="50" as="geometry" />
        </mxCell>
        <mxCell id="ybdoiESCJb-08Sw1rpXr-71" value="Filtrar noticias por ubicación" style="ellipse;whiteSpace=wrap;html=1;" parent="1" vertex="1">
          <mxGeometry x="160" y="-190" width="120" height="50" as="geometry" />
        </mxCell>
        <mxCell id="ybdoiESCJb-08Sw1rpXr-72" value="&amp;lt;&amp;lt;include&amp;gt;&amp;gt;" style="html=1;verticalAlign=bottom;endArrow=open;dashed=1;endSize=8;curved=0;rounded=0;exitX=1;exitY=0.5;exitDx=0;exitDy=0;entryX=0;entryY=0;entryDx=0;entryDy=0;" parent="1" source="ybdoiESCJb-08Sw1rpXr-8" target="ybdoiESCJb-08Sw1rpXr-69" edge="1">
          <mxGeometry relative="1" as="geometry">
            <mxPoint x="-45" y="-160" as="sourcePoint" />
            <mxPoint x="232" y="-177" as="targetPoint" />
          </mxGeometry>
        </mxCell>
        <mxCell id="ybdoiESCJb-08Sw1rpXr-73" value="&amp;lt;&amp;lt;include&amp;gt;&amp;gt;" style="html=1;verticalAlign=bottom;endArrow=open;dashed=1;endSize=8;curved=0;rounded=0;exitX=1;exitY=0.5;exitDx=0;exitDy=0;entryX=0;entryY=0;entryDx=0;entryDy=0;" parent="1" source="ybdoiESCJb-08Sw1rpXr-8" target="ybdoiESCJb-08Sw1rpXr-71" edge="1">
          <mxGeometry relative="1" as="geometry">
            <mxPoint x="-35" y="-150" as="sourcePoint" />
            <mxPoint x="242" y="-167" as="targetPoint" />
          </mxGeometry>
        </mxCell>
        <mxCell id="ybdoiESCJb-08Sw1rpXr-74" value="&amp;lt;&amp;lt;include&amp;gt;&amp;gt;" style="html=1;verticalAlign=bottom;endArrow=open;dashed=1;endSize=8;curved=0;rounded=0;entryX=0.051;entryY=0.364;entryDx=0;entryDy=0;entryPerimeter=0;exitX=1;exitY=0.5;exitDx=0;exitDy=0;" parent="1" source="ybdoiESCJb-08Sw1rpXr-8" target="ybdoiESCJb-08Sw1rpXr-70" edge="1">
          <mxGeometry relative="1" as="geometry">
            <mxPoint x="-50" y="-170" as="sourcePoint" />
            <mxPoint x="252" y="-157" as="targetPoint" />
          </mxGeometry>
        </mxCell>
        <mxCell id="x1412d7Bhj6BPtJA3p_Y-10" value="[1] &lt;b&gt;Regla de negocio: &lt;/b&gt;Se limita exportación a un máximo de 20000 noticias para asegurar rendimiento" style="text;html=1;align=left;verticalAlign=middle;whiteSpace=wrap;rounded=0;" parent="1" vertex="1">
          <mxGeometry x="-195" y="170" width="560" height="30" as="geometry" />
        </mxCell>
        <mxCell id="x1412d7Bhj6BPtJA3p_Y-11" value="&amp;lt;&amp;lt;include&amp;gt;&amp;gt;" style="html=1;verticalAlign=bottom;endArrow=open;dashed=1;endSize=8;curved=0;rounded=0;exitX=0.965;exitY=0.7;exitDx=0;exitDy=0;entryX=0;entryY=0;entryDx=0;entryDy=0;exitPerimeter=0;" parent="1" source="ybdoiESCJb-08Sw1rpXr-24" target="ybdoiESCJb-08Sw1rpXr-10" edge="1">
          <mxGeometry relative="1" as="geometry">
            <mxPoint x="90" y="-100" as="sourcePoint" />
            <mxPoint x="210" y="180" as="targetPoint" />
          </mxGeometry>
        </mxCell>
        <mxCell id="xJSOPvNTRKn9H1h3n8cO-1" value="&lt;font style=&quot;font-size: 22px;&quot;&gt;SUBSISTEMA DE CONSULTA Y ANALISIS DE DATOS&lt;/font&gt;" style="text;html=1;align=center;verticalAlign=middle;resizable=0;points=[];autosize=1;strokeColor=none;fillColor=none;" parent="1" vertex="1">
          <mxGeometry x="-195" y="-455" width="560" height="40" as="geometry" />
        </mxCell>
        <mxCell id="xJSOPvNTRKn9H1h3n8cO-2" value="" style="rounded=0;whiteSpace=wrap;html=1;" parent="1" vertex="1">
          <mxGeometry x="-1020" y="-410" width="390" height="585" as="geometry" />
        </mxCell>
        <mxCell id="xJSOPvNTRKn9H1h3n8cO-3" value="Sistema de scrapping" style="shape=umlActor;verticalLabelPosition=bottom;verticalAlign=top;html=1;outlineConnect=0;" parent="1" vertex="1">
          <mxGeometry x="-1120" y="-170" width="30" height="60" as="geometry" />
        </mxCell>
        <mxCell id="xJSOPvNTRKn9H1h3n8cO-6" value="" style="endArrow=none;html=1;rounded=0;entryX=0;entryY=0.5;entryDx=0;entryDy=0;" parent="1" target="xJSOPvNTRKn9H1h3n8cO-12" edge="1">
          <mxGeometry width="50" height="50" relative="1" as="geometry">
            <mxPoint x="-1070" y="-150" as="sourcePoint" />
            <mxPoint x="-985" y="-240" as="targetPoint" />
          </mxGeometry>
        </mxCell>
        <mxCell id="xJSOPvNTRKn9H1h3n8cO-10" value="Administrador" style="shape=umlActor;verticalLabelPosition=bottom;verticalAlign=top;html=1;outlineConnect=0;" parent="1" vertex="1">
          <mxGeometry x="-570" y="-180" width="30" height="60" as="geometry" />
        </mxCell>
        <mxCell id="xJSOPvNTRKn9H1h3n8cO-11" value="&lt;font style=&quot;font-size: 22px;&quot;&gt;SUBSISTEMA DE ALMACENAMIENTO DE NOTICIAS Y METADATOS&lt;/font&gt;" style="text;html=1;align=center;verticalAlign=middle;resizable=0;points=[];autosize=1;strokeColor=none;fillColor=none;" parent="1" vertex="1">
          <mxGeometry x="-1185" y="-480" width="720" height="40" as="geometry" />
        </mxCell>
        <mxCell id="xJSOPvNTRKn9H1h3n8cO-12" value="Almacenar noticia" style="ellipse;whiteSpace=wrap;html=1;" parent="1" vertex="1">
          <mxGeometry x="-1000" y="-170" width="120" height="50" as="geometry" />
        </mxCell>
        <mxCell id="xJSOPvNTRKn9H1h3n8cO-13" value="Actualizar noticia" style="ellipse;whiteSpace=wrap;html=1;" parent="1" vertex="1">
          <mxGeometry x="-800" y="-185" width="120" height="40" as="geometry" />
        </mxCell>
        <mxCell id="xJSOPvNTRKn9H1h3n8cO-14" value="Eliminar noticias" style="ellipse;whiteSpace=wrap;html=1;" parent="1" vertex="1">
          <mxGeometry x="-800" y="-120" width="120" height="50" as="geometry" />
        </mxCell>
        <mxCell id="xJSOPvNTRKn9H1h3n8cO-15" value="Gestionar metadatos" style="ellipse;whiteSpace=wrap;html=1;" parent="1" vertex="1">
          <mxGeometry x="-780" y="-40" width="120" height="50" as="geometry" />
        </mxCell>
        <mxCell id="xJSOPvNTRKn9H1h3n8cO-16" value="" style="endArrow=none;html=1;rounded=0;entryX=0.971;entryY=0.668;entryDx=0;entryDy=0;entryPerimeter=0;" parent="1" target="xJSOPvNTRKn9H1h3n8cO-13" edge="1">
          <mxGeometry width="50" height="50" relative="1" as="geometry">
            <mxPoint x="-600" y="-160" as="sourcePoint" />
            <mxPoint x="-850" y="-170" as="targetPoint" />
          </mxGeometry>
        </mxCell>
        <mxCell id="xJSOPvNTRKn9H1h3n8cO-17" value="" style="endArrow=none;html=1;rounded=0;entryX=1;entryY=0.5;entryDx=0;entryDy=0;" parent="1" target="xJSOPvNTRKn9H1h3n8cO-14" edge="1">
          <mxGeometry width="50" height="50" relative="1" as="geometry">
            <mxPoint x="-600" y="-160" as="sourcePoint" />
            <mxPoint x="-690" y="-158" as="targetPoint" />
          </mxGeometry>
        </mxCell>
        <mxCell id="xJSOPvNTRKn9H1h3n8cO-18" value="" style="endArrow=none;html=1;rounded=0;entryX=0.953;entryY=0.304;entryDx=0;entryDy=0;entryPerimeter=0;" parent="1" target="xJSOPvNTRKn9H1h3n8cO-15" edge="1">
          <mxGeometry width="50" height="50" relative="1" as="geometry">
            <mxPoint x="-600" y="-160" as="sourcePoint" />
            <mxPoint x="-670" y="-178" as="targetPoint" />
          </mxGeometry>
        </mxCell>
        <mxCell id="xJSOPvNTRKn9H1h3n8cO-19" value="Clasificar noticia" style="ellipse;whiteSpace=wrap;html=1;" parent="1" vertex="1">
          <mxGeometry x="-950" y="10" width="120" height="30" as="geometry" />
        </mxCell>
        <mxCell id="xJSOPvNTRKn9H1h3n8cO-20" value="Clasificar imagen" style="ellipse;whiteSpace=wrap;html=1;" parent="1" vertex="1">
          <mxGeometry x="-830" y="70" width="120" height="30" as="geometry" />
        </mxCell>
        <mxCell id="xJSOPvNTRKn9H1h3n8cO-22" value="&amp;lt;&amp;lt;include&amp;gt;&amp;gt;" style="html=1;verticalAlign=bottom;endArrow=open;dashed=1;endSize=8;curved=0;rounded=0;entryX=0.5;entryY=0;entryDx=0;entryDy=0;exitX=0.393;exitY=0.964;exitDx=0;exitDy=0;exitPerimeter=0;" parent="1" source="xJSOPvNTRKn9H1h3n8cO-15" target="xJSOPvNTRKn9H1h3n8cO-20" edge="1">
          <mxGeometry relative="1" as="geometry">
            <mxPoint x="-870" y="70" as="sourcePoint" />
            <mxPoint x="-649" y="218" as="targetPoint" />
          </mxGeometry>
        </mxCell>
        <mxCell id="xJSOPvNTRKn9H1h3n8cO-23" value="&amp;lt;&amp;lt;include&amp;gt;&amp;gt;" style="html=1;verticalAlign=bottom;endArrow=open;dashed=1;endSize=8;curved=0;rounded=0;exitX=0;exitY=0.5;exitDx=0;exitDy=0;" parent="1" source="xJSOPvNTRKn9H1h3n8cO-15" target="xJSOPvNTRKn9H1h3n8cO-19" edge="1">
          <mxGeometry relative="1" as="geometry">
            <mxPoint x="-820" as="sourcePoint" />
            <mxPoint x="-599" y="148" as="targetPoint" />
          </mxGeometry>
        </mxCell>
        <mxCell id="AGh-hy6SgrTbnIwnRyEK-2" value="&lt;font style=&quot;font-size: 22px;&quot;&gt;SUBSISTEMA DE RECOPILACION DE CONTENIDOS DE MEDIOS DE PRENSA&lt;/font&gt;" style="text;html=1;align=center;verticalAlign=middle;resizable=0;points=[];autosize=1;strokeColor=none;fillColor=none;" parent="1" vertex="1">
          <mxGeometry x="-1240" y="320" width="830" height="40" as="geometry" />
        </mxCell>
        <mxCell id="AGh-hy6SgrTbnIwnRyEK-3" value="" style="rounded=0;whiteSpace=wrap;html=1;" parent="1" vertex="1">
          <mxGeometry x="-1280" y="400" width="920" height="440" as="geometry" />
        </mxCell>
        <mxCell id="AGh-hy6SgrTbnIwnRyEK-4" value="Módulo de Gestión de Metadatos" style="rounded=0;whiteSpace=wrap;html=1;" parent="1" vertex="1">
          <mxGeometry x="-1240" y="640" width="120" height="60" as="geometry" />
        </mxCell>
        <mxCell id="AGh-hy6SgrTbnIwnRyEK-5" value="&lt;div&gt;&amp;lt;&amp;lt;Subsistema&amp;gt;&amp;gt;&lt;/div&gt;&lt;div&gt;Recopilacion de contenidos de medios de prensa&lt;/div&gt;" style="rounded=0;whiteSpace=wrap;html=1;" parent="1" vertex="1">
          <mxGeometry x="-910" y="430" width="170" height="60" as="geometry" />
        </mxCell>
        <mxCell id="xJSOPvNTRKn9H1h3n8cO-29" value="Módulo de Recepción de Noticias" style="rounded=0;whiteSpace=wrap;html=1;" parent="1" vertex="1">
          <mxGeometry x="-1070" y="640" width="120" height="60" as="geometry" />
        </mxCell>
        <mxCell id="xJSOPvNTRKn9H1h3n8cO-30" value="Base de datos" style="rounded=0;whiteSpace=wrap;html=1;" parent="1" vertex="1">
          <mxGeometry x="-760" y="650" width="120" height="60" as="geometry" />
        </mxCell>
        <mxCell id="xJSOPvNTRKn9H1h3n8cO-31" value="Sistema de scraping" style="rounded=0;whiteSpace=wrap;html=1;" parent="1" vertex="1">
          <mxGeometry x="-600" y="640" width="120" height="60" as="geometry" />
        </mxCell>
        <mxCell id="xJSOPvNTRKn9H1h3n8cO-47" value="" style="rounded=0;orthogonalLoop=1;jettySize=auto;html=1;endArrow=halfCircle;endFill=0;endSize=6;strokeWidth=1;sketch=0;exitX=0;exitY=0.75;exitDx=0;exitDy=0;" parent="1" source="AGh-hy6SgrTbnIwnRyEK-5" target="xJSOPvNTRKn9H1h3n8cO-49" edge="1">
          <mxGeometry relative="1" as="geometry">
            <mxPoint x="-1050" y="535" as="sourcePoint" />
          </mxGeometry>
        </mxCell>
        <mxCell id="xJSOPvNTRKn9H1h3n8cO-48" value="" style="rounded=0;orthogonalLoop=1;jettySize=auto;html=1;endArrow=oval;endFill=0;sketch=0;sourcePerimeterSpacing=0;targetPerimeterSpacing=0;endSize=10;exitX=0.5;exitY=0;exitDx=0;exitDy=0;" parent="1" source="AGh-hy6SgrTbnIwnRyEK-4" target="xJSOPvNTRKn9H1h3n8cO-49" edge="1">
          <mxGeometry relative="1" as="geometry">
            <mxPoint x="-1090" y="535" as="sourcePoint" />
          </mxGeometry>
        </mxCell>
        <mxCell id="xJSOPvNTRKn9H1h3n8cO-49" value="" style="ellipse;whiteSpace=wrap;html=1;align=center;aspect=fixed;fillColor=none;strokeColor=none;resizable=0;perimeter=centerPerimeter;rotatable=0;allowArrows=0;points=[];outlineConnect=1;" parent="1" vertex="1">
          <mxGeometry x="-1090" y="570" width="10" height="10" as="geometry" />
        </mxCell>
        <mxCell id="xJSOPvNTRKn9H1h3n8cO-50" value="" style="rounded=0;orthogonalLoop=1;jettySize=auto;html=1;endArrow=halfCircle;endFill=0;endSize=6;strokeWidth=1;sketch=0;exitX=0.25;exitY=1;exitDx=0;exitDy=0;" parent="1" source="AGh-hy6SgrTbnIwnRyEK-5" target="xJSOPvNTRKn9H1h3n8cO-52" edge="1">
          <mxGeometry relative="1" as="geometry">
            <mxPoint x="-930" y="575" as="sourcePoint" />
          </mxGeometry>
        </mxCell>
        <mxCell id="AGh-hy6SgrTbnIwnRyEK-6" value="" style="rounded=0;orthogonalLoop=1;jettySize=auto;html=1;endArrow=halfCircle;endFill=0;endSize=6;strokeWidth=1;sketch=0;exitX=0.941;exitY=1;exitDx=0;exitDy=0;exitPerimeter=0;" parent="1" source="AGh-hy6SgrTbnIwnRyEK-5" target="AGh-hy6SgrTbnIwnRyEK-8" edge="1">
          <mxGeometry relative="1" as="geometry">
            <mxPoint x="-690" y="615" as="sourcePoint" />
          </mxGeometry>
        </mxCell>
        <mxCell id="xJSOPvNTRKn9H1h3n8cO-51" value="" style="rounded=0;orthogonalLoop=1;jettySize=auto;html=1;endArrow=oval;endFill=0;sketch=0;sourcePerimeterSpacing=0;targetPerimeterSpacing=0;endSize=10;exitX=0.5;exitY=0;exitDx=0;exitDy=0;" parent="1" source="xJSOPvNTRKn9H1h3n8cO-29" target="xJSOPvNTRKn9H1h3n8cO-52" edge="1">
          <mxGeometry relative="1" as="geometry">
            <mxPoint x="-970" y="575" as="sourcePoint" />
          </mxGeometry>
        </mxCell>
        <mxCell id="AGh-hy6SgrTbnIwnRyEK-7" value="" style="rounded=0;orthogonalLoop=1;jettySize=auto;html=1;endArrow=oval;endFill=0;sketch=0;sourcePerimeterSpacing=0;targetPerimeterSpacing=0;endSize=10;exitX=0.5;exitY=0;exitDx=0;exitDy=0;" parent="1" source="xJSOPvNTRKn9H1h3n8cO-31" target="AGh-hy6SgrTbnIwnRyEK-8" edge="1">
          <mxGeometry relative="1" as="geometry">
            <mxPoint x="-730" y="615" as="sourcePoint" />
          </mxGeometry>
        </mxCell>
        <mxCell id="xJSOPvNTRKn9H1h3n8cO-52" value="" style="ellipse;whiteSpace=wrap;html=1;align=center;aspect=fixed;fillColor=none;strokeColor=none;resizable=0;perimeter=centerPerimeter;rotatable=0;allowArrows=0;points=[];outlineConnect=1;" parent="1" vertex="1">
          <mxGeometry x="-955" y="570" width="10" height="10" as="geometry" />
        </mxCell>
        <mxCell id="AGh-hy6SgrTbnIwnRyEK-8" value="" style="ellipse;whiteSpace=wrap;html=1;align=center;aspect=fixed;fillColor=none;strokeColor=none;resizable=0;perimeter=centerPerimeter;rotatable=0;allowArrows=0;points=[];outlineConnect=1;" parent="1" vertex="1">
          <mxGeometry x="-620" y="570" width="10" height="10" as="geometry" />
        </mxCell>
        <mxCell id="xJSOPvNTRKn9H1h3n8cO-53" value="" style="rounded=0;orthogonalLoop=1;jettySize=auto;html=1;endArrow=halfCircle;endFill=0;endSize=6;strokeWidth=1;sketch=0;exitX=0.5;exitY=1;exitDx=0;exitDy=0;" parent="1" source="AGh-hy6SgrTbnIwnRyEK-5" target="xJSOPvNTRKn9H1h3n8cO-55" edge="1">
          <mxGeometry relative="1" as="geometry">
            <mxPoint x="-800" y="575" as="sourcePoint" />
          </mxGeometry>
        </mxCell>
        <mxCell id="xJSOPvNTRKn9H1h3n8cO-54" value="" style="rounded=0;orthogonalLoop=1;jettySize=auto;html=1;endArrow=oval;endFill=0;sketch=0;sourcePerimeterSpacing=0;targetPerimeterSpacing=0;endSize=10;exitX=0.5;exitY=0;exitDx=0;exitDy=0;" parent="1" source="xJSOPvNTRKn9H1h3n8cO-30" target="xJSOPvNTRKn9H1h3n8cO-55" edge="1">
          <mxGeometry relative="1" as="geometry">
            <mxPoint x="-840" y="575" as="sourcePoint" />
          </mxGeometry>
        </mxCell>
        <mxCell id="xJSOPvNTRKn9H1h3n8cO-55" value="" style="ellipse;whiteSpace=wrap;html=1;align=center;aspect=fixed;fillColor=none;strokeColor=none;resizable=0;perimeter=centerPerimeter;rotatable=0;allowArrows=0;points=[];outlineConnect=1;" parent="1" vertex="1">
          <mxGeometry x="-760" y="580" width="10" height="10" as="geometry" />
        </mxCell>
        <mxCell id="xJSOPvNTRKn9H1h3n8cO-59" value="" style="shape=image;html=1;verticalAlign=top;verticalLabelPosition=bottom;labelBackgroundColor=#ffffff;imageAspect=0;aspect=fixed;image=https://icons.diagrams.net/icon-cache1/Pokemon_Go_Vol__2-2129/_pikachu-995.svg" parent="1" vertex="1">
          <mxGeometry x="-910" y="530" width="135" height="135" as="geometry" />
        </mxCell>
      </root>
    </mxGraphModel>
  </diagram>
</mxfile>
